<svg xmlns="http://www.w3.org/2000/svg" xmlns:xlink="http://www.w3.org/1999/xlink" width= "1000" height="1000">
<rect x="100" y="200" width="100" height="100" stroke-width="0" stroke="black" fill="black"/>
<rect x="0" y="600" width="800" height="50" stroke-width="0" stroke="black" fill="black"/>
<rect x="700" y="200" width="50" height="350" stroke-width="0" stroke="black" fill="black"/>
<rect x="300" y="300" width="100" height="200" stroke-width="0" stroke="black" fill="black"/>
<rect x="100" y="350" width="100" height="100" stroke-width="0" stroke="pink" fill="pink"/>
<rect x="200" y="300" width="100" height="100" stroke-width="0" stroke="pink" fill="pink"/>
<rect x="200" y="200" width="100" height="100" stroke-width="0" stroke="pink" fill="pink"/>
<rect x="600" y="100" width="100" height="100" stroke-width="0" stroke="pink" fill="pink"/>
<rect x="750" y="100" width="100" height="100" stroke-width="0" stroke="pink" fill="pink"/>
<rect x="800" y="500" width="100" height="100" stroke-width="0" stroke="pink" fill="pink"/>
<rect x="800" y="650" width="100" height="100" stroke-width="0" stroke="pink" fill="pink"/>
<rect x="500" y="700" width="100" height="100" stroke-width="0" stroke="pink" fill="pink"/>
<circle cx="100" cy="350" r="10" stroke-width="0" stroke="red" fill="red"/>
<line x1="100" y1="350" x2="200" y2="300" stroke-width="5" stroke="red" />
<circle cx="200" cy="300" r="10" stroke-width="0" stroke="red" fill="red"/>
<line x1="200" y1="300" x2="200" y2="200" stroke-width="5" stroke="red" />
<circle cx="200" cy="200" r="10" stroke-width="0" stroke="red" fill="red"/>
<line x1="200" y1="200" x2="600" y2="100" stroke-width="5" stroke="red" />
<circle cx="600" cy="100" r="10" stroke-width="0" stroke="red" fill="red"/>
<line x1="600" y1="100" x2="750" y2="100" stroke-width="5" stroke="red" />
<circle cx="750" cy="100" r="10" stroke-width="0" stroke="red" fill="red"/>
<line x1="750" y1="100" x2="800" y2="500" stroke-width="5" stroke="red" />
<circle cx="800" cy="500" r="10" stroke-width="0" stroke="red" fill="red"/>
<line x1="800" y1="500" x2="800" y2="650" stroke-width="5" stroke="red" />
<circle cx="800" cy="650" r="10" stroke-width="0" stroke="red" fill="red"/>
<line x1="800" y1="650" x2="500" y2="700" stroke-width="5" stroke="red" />
<circle cx="500" cy="700" r="10" stroke-width="0" stroke="red" fill="red"/>
</svg>
