<svg xmlns="http://www.w3.org/2000/svg" xmlns:xlink="http://www.w3.org/1999/xlink" width= "1000" height="1000">
<rect x="100" y="100" width="100" height="100" stroke-width="0" stroke="black" fill="black"/>
<rect x="300" y="600" width="500" height="50" stroke-width="0" stroke="black" fill="black"/>
<rect x="700" y="100" width="150" height="100" stroke-width="0" stroke="black" fill="black"/>
<rect x="300" y="700" width="100" height="200" stroke-width="0" stroke="black" fill="black"/>
<rect x="-1" y="-1" width="100" height="100" stroke-width="0" stroke="yellow" fill="yellow"/>
<rect x="-1" y="201" width="100" height="100" stroke-width="0" stroke="yellow" fill="yellow"/>
<rect x="201" y="-1" width="100" height="100" stroke-width="0" stroke="yellow" fill="yellow"/>
<rect x="201" y="201" width="100" height="100" stroke-width="0" stroke="yellow" fill="yellow"/>
<rect x="199" y="499" width="100" height="100" stroke-width="0" stroke="yellow" fill="yellow"/>
<rect x="199" y="651" width="100" height="100" stroke-width="0" stroke="yellow" fill="yellow"/>
<rect x="801" y="499" width="100" height="100" stroke-width="0" stroke="yellow" fill="yellow"/>
<rect x="801" y="651" width="100" height="100" stroke-width="0" stroke="yellow" fill="yellow"/>
<rect x="599" y="-1" width="100" height="100" stroke-width="0" stroke="yellow" fill="yellow"/>
<rect x="599" y="201" width="100" height="100" stroke-width="0" stroke="yellow" fill="yellow"/>
<rect x="851" y="-1" width="100" height="100" stroke-width="0" stroke="yellow" fill="yellow"/>
<rect x="851" y="201" width="100" height="100" stroke-width="0" stroke="yellow" fill="yellow"/>
<rect x="199" y="599" width="100" height="100" stroke-width="0" stroke="yellow" fill="yellow"/>
<rect x="199" y="901" width="100" height="100" stroke-width="0" stroke="yellow" fill="yellow"/>
<rect x="401" y="901" width="100" height="100" stroke-width="0" stroke="yellow" fill="yellow"/>
<rect x="500" y="400" width="100" height="100" stroke-width="0" stroke="yellow" fill="yellow"/>
<rect x="500" y="700" width="100" height="100" stroke-width="0" stroke="yellow" fill="yellow"/>
<circle cx="-1" cy="-1" r="10" stroke-width="0" stroke="green" fill="green"/>
<circle cx="-1" cy="201" r="10" stroke-width="0" stroke="green" fill="green"/>
<circle cx="201" cy="-1" r="10" stroke-width="0" stroke="green" fill="green"/>
<circle cx="201" cy="201" r="10" stroke-width="0" stroke="green" fill="green"/>
<circle cx="199" cy="499" r="10" stroke-width="0" stroke="green" fill="green"/>
<circle cx="199" cy="651" r="10" stroke-width="0" stroke="green" fill="green"/>
<circle cx="801" cy="499" r="10" stroke-width="0" stroke="green" fill="green"/>
<circle cx="801" cy="651" r="10" stroke-width="0" stroke="green" fill="green"/>
<circle cx="599" cy="-1" r="10" stroke-width="0" stroke="green" fill="green"/>
<circle cx="599" cy="201" r="10" stroke-width="0" stroke="green" fill="green"/>
<circle cx="851" cy="-1" r="10" stroke-width="0" stroke="green" fill="green"/>
<circle cx="851" cy="201" r="10" stroke-width="0" stroke="green" fill="green"/>
<circle cx="199" cy="599" r="10" stroke-width="0" stroke="green" fill="green"/>
<circle cx="199" cy="901" r="10" stroke-width="0" stroke="green" fill="green"/>
<circle cx="401" cy="901" r="10" stroke-width="0" stroke="green" fill="green"/>
<circle cx="500" cy="400" r="10" stroke-width="0" stroke="green" fill="green"/>
<circle cx="500" cy="700" r="10" stroke-width="0" stroke="green" fill="green"/>
<line x1="-1" y1="-1" x2="851" y2="-1" stroke-width="1" stroke="green" />
<line x1="-1" y1="-1" x2="599" y2="-1" stroke-width="1" stroke="green" />
<line x1="-1" y1="-1" x2="201" y2="-1" stroke-width="1" stroke="green" />
<line x1="-1" y1="-1" x2="-1" y2="201" stroke-width="1" stroke="green" />
<line x1="-1" y1="201" x2="500" y2="400" stroke-width="1" stroke="green" />
<line x1="-1" y1="201" x2="199" y2="901" stroke-width="1" stroke="green" />
<line x1="-1" y1="201" x2="199" y2="599" stroke-width="1" stroke="green" />
<line x1="-1" y1="201" x2="851" y2="201" stroke-width="1" stroke="green" />
<line x1="-1" y1="201" x2="599" y2="201" stroke-width="1" stroke="green" />
<line x1="-1" y1="201" x2="801" y2="499" stroke-width="1" stroke="green" />
<line x1="-1" y1="201" x2="199" y2="651" stroke-width="1" stroke="green" />
<line x1="-1" y1="201" x2="199" y2="499" stroke-width="1" stroke="green" />
<line x1="-1" y1="201" x2="201" y2="201" stroke-width="1" stroke="green" />
<line x1="-1" y1="201" x2="-1" y2="-1" stroke-width="1" stroke="green" />
<line x1="201" y1="-1" x2="500" y2="400" stroke-width="1" stroke="green" />
<line x1="201" y1="-1" x2="199" y2="901" stroke-width="1" stroke="green" />
<line x1="201" y1="-1" x2="199" y2="599" stroke-width="1" stroke="green" />
<line x1="201" y1="-1" x2="851" y2="-1" stroke-width="1" stroke="green" />
<line x1="201" y1="-1" x2="599" y2="201" stroke-width="1" stroke="green" />
<line x1="201" y1="-1" x2="599" y2="-1" stroke-width="1" stroke="green" />
<line x1="201" y1="-1" x2="801" y2="499" stroke-width="1" stroke="green" />
<line x1="201" y1="-1" x2="199" y2="651" stroke-width="1" stroke="green" />
<line x1="201" y1="-1" x2="199" y2="499" stroke-width="1" stroke="green" />
<line x1="201" y1="-1" x2="201" y2="201" stroke-width="1" stroke="green" />
<line x1="201" y1="-1" x2="-1" y2="-1" stroke-width="1" stroke="green" />
<line x1="201" y1="201" x2="500" y2="400" stroke-width="1" stroke="green" />
<line x1="201" y1="201" x2="199" y2="599" stroke-width="1" stroke="green" />
<line x1="201" y1="201" x2="851" y2="201" stroke-width="1" stroke="green" />
<line x1="201" y1="201" x2="599" y2="201" stroke-width="1" stroke="green" />
<line x1="201" y1="201" x2="599" y2="-1" stroke-width="1" stroke="green" />
<line x1="201" y1="201" x2="801" y2="499" stroke-width="1" stroke="green" />
<line x1="201" y1="201" x2="199" y2="651" stroke-width="1" stroke="green" />
<line x1="201" y1="201" x2="199" y2="499" stroke-width="1" stroke="green" />
<line x1="201" y1="201" x2="201" y2="-1" stroke-width="1" stroke="green" />
<line x1="201" y1="201" x2="-1" y2="201" stroke-width="1" stroke="green" />
<line x1="199" y1="499" x2="500" y2="400" stroke-width="1" stroke="green" />
<line x1="199" y1="499" x2="199" y2="901" stroke-width="1" stroke="green" />
<line x1="199" y1="499" x2="199" y2="599" stroke-width="1" stroke="green" />
<line x1="199" y1="499" x2="851" y2="201" stroke-width="1" stroke="green" />
<line x1="199" y1="499" x2="599" y2="201" stroke-width="1" stroke="green" />
<line x1="199" y1="499" x2="599" y2="-1" stroke-width="1" stroke="green" />
<line x1="199" y1="499" x2="801" y2="499" stroke-width="1" stroke="green" />
<line x1="199" y1="499" x2="199" y2="651" stroke-width="1" stroke="green" />
<line x1="199" y1="499" x2="201" y2="201" stroke-width="1" stroke="green" />
<line x1="199" y1="499" x2="201" y2="-1" stroke-width="1" stroke="green" />
<line x1="199" y1="499" x2="-1" y2="201" stroke-width="1" stroke="green" />
<line x1="199" y1="651" x2="199" y2="901" stroke-width="1" stroke="green" />
<line x1="199" y1="651" x2="199" y2="599" stroke-width="1" stroke="green" />
<line x1="199" y1="651" x2="199" y2="499" stroke-width="1" stroke="green" />
<line x1="199" y1="651" x2="201" y2="201" stroke-width="1" stroke="green" />
<line x1="199" y1="651" x2="201" y2="-1" stroke-width="1" stroke="green" />
<line x1="199" y1="651" x2="-1" y2="201" stroke-width="1" stroke="green" />
<line x1="801" y1="499" x2="500" y2="400" stroke-width="1" stroke="green" />
<line x1="801" y1="499" x2="851" y2="201" stroke-width="1" stroke="green" />
<line x1="801" y1="499" x2="599" y2="201" stroke-width="1" stroke="green" />
<line x1="801" y1="499" x2="801" y2="651" stroke-width="1" stroke="green" />
<line x1="801" y1="499" x2="199" y2="499" stroke-width="1" stroke="green" />
<line x1="801" y1="499" x2="201" y2="201" stroke-width="1" stroke="green" />
<line x1="801" y1="499" x2="201" y2="-1" stroke-width="1" stroke="green" />
<line x1="801" y1="499" x2="-1" y2="201" stroke-width="1" stroke="green" />
<line x1="801" y1="651" x2="500" y2="700" stroke-width="1" stroke="green" />
<line x1="801" y1="651" x2="401" y2="901" stroke-width="1" stroke="green" />
<line x1="801" y1="651" x2="851" y2="201" stroke-width="1" stroke="green" />
<line x1="801" y1="651" x2="801" y2="499" stroke-width="1" stroke="green" />
<line x1="599" y1="-1" x2="500" y2="400" stroke-width="1" stroke="green" />
<line x1="599" y1="-1" x2="851" y2="-1" stroke-width="1" stroke="green" />
<line x1="599" y1="-1" x2="599" y2="201" stroke-width="1" stroke="green" />
<line x1="599" y1="-1" x2="199" y2="499" stroke-width="1" stroke="green" />
<line x1="599" y1="-1" x2="201" y2="201" stroke-width="1" stroke="green" />
<line x1="599" y1="-1" x2="201" y2="-1" stroke-width="1" stroke="green" />
<line x1="599" y1="-1" x2="-1" y2="-1" stroke-width="1" stroke="green" />
<line x1="599" y1="201" x2="500" y2="400" stroke-width="1" stroke="green" />
<line x1="599" y1="201" x2="851" y2="201" stroke-width="1" stroke="green" />
<line x1="599" y1="201" x2="599" y2="-1" stroke-width="1" stroke="green" />
<line x1="599" y1="201" x2="801" y2="499" stroke-width="1" stroke="green" />
<line x1="599" y1="201" x2="199" y2="499" stroke-width="1" stroke="green" />
<line x1="599" y1="201" x2="201" y2="201" stroke-width="1" stroke="green" />
<line x1="599" y1="201" x2="201" y2="-1" stroke-width="1" stroke="green" />
<line x1="599" y1="201" x2="-1" y2="201" stroke-width="1" stroke="green" />
<line x1="851" y1="-1" x2="851" y2="201" stroke-width="1" stroke="green" />
<line x1="851" y1="-1" x2="599" y2="-1" stroke-width="1" stroke="green" />
<line x1="851" y1="-1" x2="201" y2="-1" stroke-width="1" stroke="green" />
<line x1="851" y1="-1" x2="-1" y2="-1" stroke-width="1" stroke="green" />
<line x1="851" y1="201" x2="500" y2="400" stroke-width="1" stroke="green" />
<line x1="851" y1="201" x2="851" y2="-1" stroke-width="1" stroke="green" />
<line x1="851" y1="201" x2="599" y2="201" stroke-width="1" stroke="green" />
<line x1="851" y1="201" x2="801" y2="651" stroke-width="1" stroke="green" />
<line x1="851" y1="201" x2="801" y2="499" stroke-width="1" stroke="green" />
<line x1="851" y1="201" x2="199" y2="499" stroke-width="1" stroke="green" />
<line x1="851" y1="201" x2="201" y2="201" stroke-width="1" stroke="green" />
<line x1="851" y1="201" x2="-1" y2="201" stroke-width="1" stroke="green" />
<line x1="199" y1="599" x2="199" y2="901" stroke-width="1" stroke="green" />
<line x1="199" y1="599" x2="199" y2="651" stroke-width="1" stroke="green" />
<line x1="199" y1="599" x2="199" y2="499" stroke-width="1" stroke="green" />
<line x1="199" y1="599" x2="201" y2="201" stroke-width="1" stroke="green" />
<line x1="199" y1="599" x2="201" y2="-1" stroke-width="1" stroke="green" />
<line x1="199" y1="599" x2="-1" y2="201" stroke-width="1" stroke="green" />
<line x1="199" y1="901" x2="401" y2="901" stroke-width="1" stroke="green" />
<line x1="199" y1="901" x2="199" y2="599" stroke-width="1" stroke="green" />
<line x1="199" y1="901" x2="199" y2="651" stroke-width="1" stroke="green" />
<line x1="199" y1="901" x2="199" y2="499" stroke-width="1" stroke="green" />
<line x1="199" y1="901" x2="201" y2="-1" stroke-width="1" stroke="green" />
<line x1="199" y1="901" x2="-1" y2="201" stroke-width="1" stroke="green" />
<line x1="401" y1="901" x2="500" y2="700" stroke-width="1" stroke="green" />
<line x1="401" y1="901" x2="199" y2="901" stroke-width="1" stroke="green" />
<line x1="401" y1="901" x2="801" y2="651" stroke-width="1" stroke="green" />
<line x1="500" y1="400" x2="851" y2="201" stroke-width="1" stroke="green" />
<line x1="500" y1="400" x2="599" y2="201" stroke-width="1" stroke="green" />
<line x1="500" y1="400" x2="599" y2="-1" stroke-width="1" stroke="green" />
<line x1="500" y1="400" x2="801" y2="499" stroke-width="1" stroke="green" />
<line x1="500" y1="400" x2="199" y2="499" stroke-width="1" stroke="green" />
<line x1="500" y1="400" x2="201" y2="201" stroke-width="1" stroke="green" />
<line x1="500" y1="400" x2="201" y2="-1" stroke-width="1" stroke="green" />
<line x1="500" y1="400" x2="-1" y2="201" stroke-width="1" stroke="green" />
<line x1="500" y1="700" x2="401" y2="901" stroke-width="1" stroke="green" />
<line x1="500" y1="700" x2="801" y2="651" stroke-width="1" stroke="green" />
<line x1="500" y1="400" x2="801" y2="499" stroke-width="5" stroke="blue" />
<line x1="801" y1="499" x2="801" y2="651" stroke-width="5" stroke="blue" />
<line x1="801" y1="651" x2="500" y2="700" stroke-width="5" stroke="blue" />
</svg>
